<?xml version="1.0" encoding="utf-8"?>
<!-- Generator: Adobe Illustrator 22.1.0, SVG Export Plug-In . SVG Version: 6.00 Build 0)  -->
<svg version="1.1" id="レイヤー_1" xmlns="http://www.w3.org/2000/svg" xmlns:xlink="http://www.w3.org/1999/xlink" x="0px"
	 y="0px" viewBox="0 0 830.7 517.1" style="enable-background:new 0 0 830.7 517.1;" xml:space="preserve">
<style type="text/css">
	.st0{fill:none;stroke:#000000;stroke-width:0.5;stroke-miterlimit:10;}
	.st1{fill:none;}
	.st2{font-family:'Helvetica';}
	.st3{font-size:12px;}
	.st4{fill:none;stroke:#000000;stroke-width:0.5;stroke-miterlimit:10;stroke-dasharray:3.0283,3.0283;}
	.st5{fill:none;stroke:#000000;stroke-width:0.5;stroke-miterlimit:10;stroke-dasharray:2.9899,2.9899;}
	.st6{fill:#555656;}
</style>
<g>
	<path class="st0" d="M272.5,84.6H35.7c-4,0-7.2-3.2-7.2-7.2V52.6c0-4,3.2-7.2,7.2-7.2h236.8c4,0,7.2,3.2,7.2,7.2v24.8
		C279.7,81.4,276.4,84.6,272.5,84.6z"/>
	<rect x="89.2" y="58.1" class="st1" width="129.6" height="13.9"/>
	<text transform="matrix(1 0 0 1 105.3749 68.3649)" class="st2 st3">constructor(props)</text>
</g>
<g>
	<rect x="82" y="123.9" class="st1" width="144" height="12.3"/>
	<text transform="matrix(1 0 0 1 94.0367 134.1605)" class="st2 st3">componentWillMount()</text>
	<path class="st0" d="M272.5,149.6H35.7c-4,0-7.2-3.2-7.2-7.2v-24.8c0-4,3.2-7.2,7.2-7.2h236.8c4,0,7.2,3.2,7.2,7.2v24.8
		C279.7,146.4,276.4,149.6,272.5,149.6z"/>
</g>
<g>
	<rect x="125.3" y="188.8" class="st1" width="57.6" height="12.4"/>
	<text transform="matrix(1 0 0 1 132.7178 199.0988)" class="st2 st3">render()</text>
	<path class="st0" d="M272.5,214.6H35.7c-4,0-7.2-3.2-7.2-7.2v-24.8c0-4,3.2-7.2,7.2-7.2h236.8c4,0,7.2,3.2,7.2,7.2v24.8
		C279.7,211.3,276.4,214.6,272.5,214.6z"/>
</g>
<g>
	<rect x="85.6" y="253.4" class="st1" width="136.8" height="13.1"/>
	<text transform="matrix(1 0 0 1 94.6962 263.7191)" class="st2 st3">componentDidMount()</text>
	<path class="st0" d="M272.5,279.6H35.7c-4,0-7.2-3.2-7.2-7.2v-24.8c0-4,3.2-7.2,7.2-7.2h236.8c4,0,7.2,3.2,7.2,7.2v24.8
		C279.7,276.3,276.4,279.6,272.5,279.6z"/>
</g>
<g>
	<rect x="74.8" y="422.1" class="st1" width="158.4" height="14.5"/>
	<text transform="matrix(1 0 0 1 86.3676 432.355)" class="st2 st3">componentWillUnmount()</text>
	<path class="st0" d="M272.5,448.9H35.7c-4,0-7.2-3.2-7.2-7.2v-24.8c0-4,3.2-7.2,7.2-7.2h236.8c4,0,7.2,3.2,7.2,7.2v24.8
		C279.7,445.7,276.4,448.9,272.5,448.9z"/>
</g>
<g>
	<rect x="494.8" y="285.5" class="st1" width="309.7" height="12.7"/>
	<text transform="matrix(1 0 0 1 521.8582 295.8296)" class="st2 st3">shouldComponentUpdate(nextProps, nextState)</text>
	<path class="st0" d="M810.4,311.5H488.8c-4,0-7.2-3.2-7.2-7.2v-24.8c0-4,3.2-7.2,7.2-7.2h321.7c4,0,7.2,3.2,7.2,7.2v24.8
		C817.6,308.2,814.4,311.5,810.4,311.5z"/>
</g>
<g>
	<rect x="502" y="351" class="st1" width="295.2" height="13.1"/>
	<text transform="matrix(1 0 0 1 531.2102 361.2639)" class="st2 st3">componentWillUpdate(nextProps, nextState)</text>
	<path class="st0" d="M810.4,377.1H488.8c-4,0-7.2-3.2-7.2-7.2v-24.8c0-4,3.2-7.2,7.2-7.2h321.7c4,0,7.2,3.2,7.2,7.2v24.8
		C817.6,373.9,814.4,377.1,810.4,377.1z"/>
</g>
<g>
	<rect x="520" y="219" class="st1" width="259.2" height="14.4"/>
	<text transform="matrix(1 0 0 1 541.8919 229.3446)" class="st2 st3">componentWillReceiveProps(nextProps)</text>
	<path class="st0" d="M810.4,245.8H488.8c-4,0-7.2-3.2-7.2-7.2v-24.8c0-4,3.2-7.2,7.2-7.2h321.7c4,0,7.2,3.2,7.2,7.2v24.8
		C817.6,242.6,814.4,245.8,810.4,245.8z"/>
</g>
<g>
	<rect x="505.6" y="482.2" class="st1" width="288" height="13.1"/>
	<text transform="matrix(1 0 0 1 531.2073 492.5408)" class="st2 st3">componentDidUpdate(prevProps, prevState)</text>
	<path class="st0" d="M810.4,508.4H488.8c-4,0-7.2-3.2-7.2-7.2v-24.8c0-4,3.2-7.2,7.2-7.2h321.7c4,0,7.2,3.2,7.2,7.2v24.8
		C817.6,505.1,814.4,508.4,810.4,508.4z"/>
</g>
<g>
	<rect x="620.8" y="417" class="st1" width="57.6" height="12.4"/>
	<text transform="matrix(1 0 0 1 628.2599 427.2646)" class="st2 st3">render()</text>
	<path class="st0" d="M768,442.8H531.2c-4,0-7.2-3.2-7.2-7.2v-24.8c0-4,3.2-7.2,7.2-7.2H768c4,0,7.2,3.2,7.2,7.2v24.8
		C775.2,439.5,772,442.8,768,442.8z"/>
</g>
<g>
	<g>
		<polyline class="st0" points="302.4,300.3 302.4,301.8 300.9,301.8 		"/>
		<line class="st4" x1="297.9" y1="301.8" x2="8.7" y2="301.8"/>
		<polyline class="st0" points="7.2,301.8 5.7,301.8 5.7,300.3 		"/>
		<line class="st5" x1="5.7" y1="297.3" x2="5.7" y2="11.7"/>
		<polyline class="st0" points="5.7,10.3 5.7,8.8 7.2,8.8 		"/>
		<line class="st4" x1="10.2" y1="8.8" x2="299.4" y2="8.8"/>
		<polyline class="st0" points="300.9,8.8 302.4,8.8 302.4,10.3 		"/>
		<line class="st5" x1="302.4" y1="13.2" x2="302.4" y2="298.8"/>
	</g>
</g>
<text transform="matrix(1 0 0 1 120.7328 27.7865)" class="st2 st3">Initialization </text>
<text transform="matrix(1 0 0 1 359.7764 229.7042)" class="st2 st3">props changed</text>
<rect x="358.5" y="285.5" class="st1" width="81.1" height="14.6"/>
<text transform="matrix(1 0 0 1 358.486 295.8359)" class="st2 st3">state changed</text>
<text transform="matrix(1 0 0 1 313.4018 390.7082)" class="st2 st3">unmount</text>
<ellipse class="st6" cx="399" cy="259.4" rx="30.1" ry="20.1"/>
<g>
	<g>
		<line class="st0" x1="154.1" y1="84.6" x2="154.1" y2="107.4"/>
		<g>
			<path d="M154.1,110.4c-0.5-1.4-1.4-3.2-2.4-4.3l2.4,0.9l2.4-0.9C155.5,107.2,154.6,109,154.1,110.4z"/>
		</g>
	</g>
</g>
<g>
	<g>
		<line class="st0" x1="154.1" y1="149.6" x2="154.1" y2="172.3"/>
		<g>
			<path d="M154.1,175.4c-0.5-1.4-1.4-3.2-2.4-4.3l2.4,0.9l2.4-0.9C155.5,172.2,154.6,173.9,154.1,175.4z"/>
		</g>
	</g>
</g>
<g>
	<g>
		<line class="st0" x1="154.1" y1="214.6" x2="154.1" y2="237.3"/>
		<g>
			<path d="M154.1,240.3c-0.5-1.4-1.4-3.2-2.4-4.3l2.4,0.9l2.4-0.9C155.5,237.2,154.6,238.9,154.1,240.3z"/>
		</g>
	</g>
</g>
<g>
	<g>
		<line class="st0" x1="649.6" y1="246.5" x2="649.6" y2="269.2"/>
		<g>
			<path d="M649.6,272.3c-0.5-1.4-1.4-3.2-2.4-4.3l2.4,0.9l2.4-0.9C651,269.1,650.1,270.8,649.6,272.3z"/>
		</g>
	</g>
</g>
<g>
	<g>
		<line class="st0" x1="649.6" y1="311.5" x2="649.6" y2="334.2"/>
		<g>
			<path d="M649.6,337.2c-0.5-1.4-1.4-3.2-2.4-4.3l2.4,0.9l2.4-0.9C651,334.1,650.1,335.8,649.6,337.2z"/>
		</g>
	</g>
</g>
<g>
	<g>
		<line class="st0" x1="649.6" y1="377.4" x2="649.6" y2="400.2"/>
		<g>
			<path d="M649.6,403.2c-0.5-1.4-1.4-3.2-2.4-4.3l2.4,0.9l2.4-0.9C651,400,650.1,401.8,649.6,403.2z"/>
		</g>
	</g>
</g>
<g>
	<g>
		<line class="st0" x1="649.6" y1="442.8" x2="649.6" y2="465.5"/>
		<g>
			<path d="M649.6,468.5c-0.5-1.4-1.4-3.2-2.4-4.3l2.4,0.9l2.4-0.9C651,465.3,650.1,467.1,649.6,468.5z"/>
		</g>
	</g>
</g>
<text transform="matrix(1 0 0 1 505.4315 328.7128)" class="st2 st3">* When True is returned</text>
<g>
	<g>
		<line class="st0" x1="447.6" y1="292.8" x2="470.4" y2="292.8"/>
		<g>
			<path d="M473.4,292.8c-1.4,0.5-3.2,1.4-4.3,2.4l0.9-2.4l-0.9-2.4C470.2,291.4,472,292.3,473.4,292.8z"/>
		</g>
	</g>
</g>
<g>
	<g>
		<line class="st0" x1="447.6" y1="226.5" x2="470.4" y2="226.5"/>
		<g>
			<path d="M473.4,226.5c-1.4,0.5-3.2,1.4-4.3,2.4l0.9-2.4l-0.9-2.4C470.2,225,472,225.9,473.4,226.5z"/>
		</g>
	</g>
</g>
<g>
	<g>
		<line class="st0" x1="358.8" y1="278.8" x2="288.9" y2="400.9"/>
		<g>
			<path d="M287.4,403.5c0.2-1.5,0.3-3.5,0.1-4.9l1.6,1.9l2.5,0.4C290.3,401.5,288.6,402.6,287.4,403.5z"/>
		</g>
	</g>
</g>
<g>
	<g>
		<line class="st0" x1="292.6" y1="260" x2="349.9" y2="260"/>
		<g>
			<path d="M352.9,260c-1.4,0.5-3.2,1.4-4.3,2.4l0.9-2.4l-0.9-2.4C349.8,258.5,351.5,259.4,352.9,260z"/>
		</g>
	</g>
</g>
<text transform="matrix(1 0 0 1 218.5608 324.3573)" class="st2 st3">exception</text>
<rect x="45.9" y="363.9" class="st1" width="216.4" height="14.4"/>
<text transform="matrix(1 0 0 1 70.0227 374.217)" class="st2 st3">componentDidCatch(error, info)</text>
<path class="st0" d="M272.5,390.7H35.7c-4,0-7.2-3.2-7.2-7.2v-24.8c0-4,3.2-7.2,7.2-7.2h236.8c4,0,7.2,3.2,7.2,7.2v24.8
	C279.7,387.5,276.4,390.7,272.5,390.7z"/>
<g>
	<g>
		<line class="st0" x1="357" y1="269" x2="281.5" y2="344.6"/>
		<g>
			<path d="M279.4,346.8c0.6-1.4,1.2-3.3,1.3-4.7l1.1,2.3l2.3,1.1C282.6,345.5,280.7,346.1,279.4,346.8z"/>
		</g>
	</g>
</g>
</svg>
